<svg xmlns="http://www.w3.org/2000/svg" xmlns:xlink="http://www.w3.org/1999/xlink" viewBox="0 0 105 105" title=" " class=" c-icon__item">
    <defs>
        <path id="email-a" d="M52.5 0C23.505 0 0 23.506 0 52.499 0 81.495 23.505 105 52.5 105S105 81.495 105 52.499C105 23.506 81.495 0 52.5 0z"></path>
        <path id="email-d" d="M.445 33.72l18.982-14.112L4.465 6.957A9.502 9.502 0 0 1 .581.695L.567.684.445 33.72z"></path>
        <path id="email-f" d="M19.419.695a9.502 9.502 0 0 1-3.884 6.262L.572 19.608 19.555 33.72 19.433.684l-.014.011z"></path>
    </defs>
    <g fill="none" fill-rule="evenodd">
        <path fill="#F0B8B2" d="M74.36 72.915H30.64a3.195 3.195 0 0 1-3.195-3.194V37.35a2.16 2.16 0 0 1 2.159-2.16h45.792a2.16 2.16 0 0 1 2.159 2.16v32.37a3.195 3.195 0 0 1-3.194 3.195"></path>
        <path fill="#F0B8B2" d="M31.465 42.957a9.5 9.5 0 0 1-3.884-6.262l-.014-.011-.122 33.037 18.983-14.113-14.963-12.651z"></path>
        <path fill="#FFF2F0" d="M27.571 36.648a9.501 9.501 0 0 0 3.894 6.31L50.16 58.762a4.053 4.053 0 0 0 4.681 0l18.695-15.806a9.5 9.5 0 0 0 3.893-6.309 2.151 2.151 0 0 0-2.032-1.458H29.604c-.946 0-1.74.612-2.033 1.458"></path>
        <path fill="#F0B8B2" d="M73.536 42.957l-14.963 12.65 18.983 14.114-.123-33.037-.013.01a9.508 9.508 0 0 1-3.884 6.263"></path>
        <g transform="translate(27 36)">
            <mask id="email-e" fill="#fff">
                <use xlink:href="#email-d"></use>
            </mask>
            <path fill="#F3D1CE" d="M.445 33.72l18.982-14.112L4.465 6.957A9.502 9.502 0 0 1 .581.695L.567.684.445 33.72z" mask="url(#email-e)"></path>
        </g>
        <g transform="translate(58 36)">
            <mask id="email-g" fill="#fff">
                <use xlink:href="#email-f"></use>
            </mask>
            <path fill="#F3D1CE" d="M19.419.695a9.502 9.502 0 0 1-3.884 6.262L.572 19.608 19.555 33.72 19.433.684l-.014.011z" mask="url(#email-g)"></path>
        </g>
    </g>
</svg>