<svg version="1" xmlns="http://www.w3.org/2000/svg" width="682.667" height="682.667" viewBox="0 0 512.000000 512.000000"><path d="M237.2 34.2c7.3 14.3 8.1 16.1 10.7 24.8 6.2 20.3 5.5 35.4-2.1 50.1-3.3 6.3-6.7 11.9-7.8 12.9-.3.3-1.3 1.7-2.2 3.1-.9 1.5-4.2 5.4-7.3 8.8-4.3 4.6-6.7 6.3-9.8 7.1-30.2 7.7-50.7 20.2-58.8 36-3.4 6.6-3.3 20.4.1 27.5 4.6 9.6 17.6 19.4 31.5 23.9 16.9 5.4 50.3 8.8 65.3 6.6 20.2-2.9 34.9-12.7 38.7-25.6 1.8-6.2 1.8-7.7 0-12.4-.8-2.2-1.4-3-1.7-2-.3.8-1.3 4.1-2.4 7.3-3.2 10.4-13 18.4-27.1 22.3-8.7 2.4-33.9 2.1-46.3-.5-11.7-2.5-14-3.2-21-6.3-11.5-5.2-20.1-13.9-23-23.1-2.1-6.7 2.3-16.6 10.9-24.5 7.1-6.4 25.9-14.2 34.3-14.2 2.7 0 2.8.1 2.8 5.8 0 6.9 3.2 19.1 6.6 24.9 3.6 6.2 9.5 10.7 16.6 12.8 5.2 1.6 5.8 1.9 3.5 2.3-1.5.2-5.1-.2-8.1-.8-11.2-2.3-20.3-14.7-24.1-32.8-.6-2.8-1-3.2-3.9-3.2-6.7 0-17.5 5-23.5 10.8-5 4.9-6.1 7.3-6.1 13.3 0 5.3.3 6 4.4 10.5 3.7 4.2 8.1 7 17.7 11.5 5.3 2.4 26.7 6.3 40.3 7.3 7.3.5 19.9-1.5 25.1-4.1 8.7-4.4 16-13.7 17.1-21.7 1-6.9 1.6-7.3 6.7-4.7 6.6 3.4 11.3 7.6 14.5 12.9 3.7 6.3 3.8 15.6.3 22.2-5.4 10.4-14.9 18.9-29.1 26-6.7 3.3-14.5 5.9-30.5 10-8 2.1-47.5 2.4-62 .6-16.5-2.1-24.7-3.5-26.7-4.6-1-.6-3.5-1-5.5-1-3.4.1-3.6.2-2 1.4 1 .8 1.7 2.6 1.7 4.5 0 2.5-.4 3.1-2.2 3.1-1.6.1-1.1.5 1.7 1.5 12.8 4.7 34.1 8.2 61.5 10.1 40.3 2.8 68.6-.4 99.4-11.2 26.9-9.5 53.2-29.4 61.6-46.9 2.9-5.9 2.3-13.5-1.4-19.9-9.3-15.8-40.7-31-75.1-36.4-11.5-1.7-44.6-2.7-55-1.5l-7 .8-.3 8.3c-.2 7.1.1 9.1 2.2 13.8 1.4 3 4.8 7.9 7.7 10.9 2.9 3 4.8 5.5 4.3 5.5-2.3 0-7.6-4.4-10.8-8.7-5.8-7.9-7.6-14-7.6-25.3 0-5.4.4-10.1.9-10.4 1.8-1.2 42.9-1.7 52.1-.8 35.6 3.9 63.2 11.8 83.1 23.8 28.8 17.4 30.4 41 4.2 64.3-5.2 4.6-16.7 13.1-17.8 13.1-.3 0-2.6 1.3-5.3 2.9-8.8 5.5-33.8 15.3-48.2 19-2.5.6-10.8 2.3-18.5 3.8-13.5 2.5-15.2 2.6-48 2.6-36.9-.1-50.8-1.3-70.8-5.9-17.7-4-35.3-11.2-47.4-19.5-2.4-1.6-6.4-4.3-9-6.1-9-6.1-23.9-21.6-32.6-33.8-7.7-10.7-8.5-11.6-8-8.3.4 2 1.2 4.8 2 6.3.7 1.4 1.3 3.1 1.3 3.8 0 3.5 8.9 17.6 16.8 26.7 16.5 19 43.7 34 76.9 42.6 7.1 1.8 13.4 3 29.3 5.8 23 3.9 71.3 4.9 90.2 1.8 39.2-6.4 77.4-22.3 97.8-40.7 5.5-5 5.6-4.8 4 10.9-3.6 36.1-19.5 74.3-44.6 107.1-10.7 14-31.2 34.8-45.3 45.8-5.7 4.5-9.9 8.2-9.3 8.2 4.1 0 29.4-12.2 37.7-18.1 28.8-20.8 49.8-48.4 62.7-82.4 4.6-12.3 7.3-21.6 11.7-41 1.9-8.5 5.1-35.6 5.1-43.4 0-7.2.1-7.4 3.8-10.9 4.7-4.5 12.1-7.9 21.4-9.8 8.2-1.7 12.9-1.3 19.4 1.7 11.2 5.3 18.5 24.2 15.5 40-2.9 14.6-16.5 37.3-36.6 60.9-1.6 1.9-9.7 10.4-18 18.8l-15 15.3 6-3.2c31.4-16.6 60.5-44.3 73.1-69.5 12.9-26 13.9-55.4 2.2-70.5-6-7.8-20.3-13.9-32.8-13.9-9.7 0-24.5 4.5-32.7 10-1.8 1.2-3.3 2-3.3 1.7 0-3.7-3.6-18.9-5.4-23.1-11.8-26.7-40.9-43.9-86.1-51-15.3-2.4-40.2-3.7-58.2-3-12.3.5-16.3.4-16.3-.5 0-.6 2-3.3 4.5-5.9 16.1-16.6 23.4-45 16.6-64.3-2.8-7.8-7.4-17.4-9.2-18.9-.3-.3-1-1.3-1.5-2.2-1.6-3-11.5-13.7-16.5-17.9l-5-4.1 6.3 12.4zm19.8 166c0 1.3-2.3.5-2.8-1-.2-.7.2-1 1.2-.6.9.3 1.6 1.1 1.6 1.6z"/><path d="M147.8 252.7c.7.3 1.6.2 1.9-.1.4-.3-.2-.6-1.3-.5-1.1 0-1.4.3-.6.6zM370.1 281.6c0 1.1.3 1.4.6.6.3-.7.2-1.6-.1-1.9-.3-.4-.6.2-.5 1.3zM369.2 287c0 1.4.2 1.9.5 1.2.2-.6.2-1.8 0-2.5-.3-.6-.5-.1-.5 1.3zM367.1 292.6c0 1.1.3 1.4.6.6.3-.7.2-1.6-.1-1.9-.3-.4-.6.2-.5 1.3zM344.5 296c-1.6.7-1.7.9-.3.9.9.1 2-.4 2.3-.9.7-1.1.7-1.1-2 0zM327.8 303.7c.6.2 1.8.2 2.5 0 .6-.3.1-.5-1.3-.5-1.4 0-1.9.2-1.2.5zM318.8 306.7c.6.2 1.8.2 2.5 0 .6-.3.1-.5-1.3-.5-1.4 0-1.9.2-1.2.5zM314.8 307.7c.7.3 1.6.2 1.9-.1.4-.3-.2-.6-1.3-.5-1.1 0-1.4.3-.6.6zM307.5 309c-.3.5.3 1 1.4 1 1.1 0 2.3-.5 2.6-1 .3-.6-.3-1-1.4-1-1.1 0-2.3.4-2.6 1zM301.3 310.7c.9.2 2.5.2 3.5 0 .9-.3.1-.5-1.8-.5-1.9 0-2.7.2-1.7.5zM294.3 311.7c.9.2 2.5.2 3.5 0 .9-.3.1-.5-1.8-.5-1.9 0-2.7.2-1.7.5zM281.8 313.7c1.7.2 4.7.2 6.5 0 1.7-.2.3-.4-3.3-.4-3.6 0-5 .2-3.2.4zM226.8 314.7c2.3.2 6.1.2 8.5 0 2.3-.2.4-.4-4.3-.4s-6.6.2-4.2.4zM265.8 314.7c2.3.2 6.1.2 8.5 0 2.3-.2.4-.4-4.3-.4s-6.6.2-4.2.4zM245.3 315.7c3.2.2 8.1.2 11 0 2.9-.2.3-.3-5.8-.3-6 0-8.4.1-5.2.3zM228.8 316.7c.6.2 1.8.2 2.5 0 .6-.3.1-.5-1.3-.5-1.4 0-1.9.2-1.2.5zM238.8 319.7c.7.3 1.6.2 1.9-.1.4-.3-.2-.6-1.3-.5-1.1 0-1.4.3-.6.6zM277.5 341c1 1.1 2 2 2.3 2 .3 0-.3-.9-1.3-2s-2-2-2.3-2c-.3 0 .3.9 1.3 2zM284 347.4c0 .2.8 1 1.8 1.7 1.5 1.3 1.6 1.2.3-.4s-2.1-2.1-2.1-1.3zM40.9 354.9c-4.9 7.7-10 18.8-11.9 25.6-1.8 6.7-2.4 21.6-1.1 28.7 3.5 20 18.2 37.7 43.1 52 29.5 16.8 65.8 26.4 113.3 29.9 16.9 1.3 71.4.6 83.7-1 41.9-5.5 63.4-10.2 94.3-20.5 21.9-7.3 39.9-14.6 55.2-22.4 3.9-1.9 8.7-4.4 10.8-5.4 5.3-2.6 4-3.4-1.5-1-6.9 3.1-27.5 9.9-39.9 13.1-50.3 13-118.1 20.3-174.4 18.7-23.6-.7-29.1-1.4-54-6.8-63.2-13.7-101.3-37.1-114.2-70.1-2.6-6.7-2.8-8.2-2.8-21.2 0-11 .4-15.1 1.9-19.3 1-2.9 1.6-5.5 1.5-5.7-.2-.1-2 2.3-4 5.4zM336.4 355.8c-1.1.7-3.8 5.2-3.1 5.2.2 0 1.3-1.4 2.5-3 2.4-3.1 2.4-3.5.6-2.2zM330.5 363.1c-.4.6-.5 1.2-.2 1.5.2.3.7-.2 1-1.1.7-1.7.1-2-.8-.4z"/><path d="M56.2 364.5c0 1.1.3 2.9.8 4 1.1 2.5 1.1-.1 0-3.5-.6-2-.8-2.1-.8-.5zM297 371.5c0 .8.5 1.5 1 1.5.6 0 1-.7 1-1.5s-.4-1.5-1-1.5c-.5 0-1 .7-1 1.5zM61.1 379.6c0 1.1.3 1.4.6.6.3-.7.2-1.6-.1-1.9-.3-.4-.6.2-.5 1.3zM63.7 385.1c.4 1.3.8 1.8 1.1 1 .2-.7-.1-1.8-.6-2.3-.8-.8-.9-.4-.5 1.3zM83.5 397c.3.5.8 1 1.1 1 .2 0 .4-.5.4-1 0-.6-.5-1-1.1-1-.5 0-.7.4-.4 1zM295.1 399.6c0 1.1.3 1.4.6.6.3-.7.2-1.6-.1-1.9-.3-.4-.6.2-.5 1.3zM73.6 400.3c.3 1 .9 1.5 1.2 1.2.3-.3 0-1.1-.7-1.8-1-.9-1.1-.8-.5.6zM90.6 403.5c1 .8 2.3 1.5 2.8 1.5.6 0 .1-.7-1-1.5-1-.8-2.3-1.5-2.8-1.5-.6 0-.1.7 1 1.5zM77 403.7c0 .6.8 1.7 1.8 2.4 1.6 1.3 1.6 1.3.2-.6-.8-1.1-1.6-2.2-1.7-2.4-.2-.2-.3 0-.3.6zM96.7 407.9c2.3 2.2 3.9 2.8 2.8 1.1-.3-.5-1.6-1.5-2.8-2.1l-2.2-1.1 2.2 2.1zM81 409c0 .5.5 1 1.1 1 .5 0 .7-.5.4-1-.3-.6-.8-1-1.1-1-.2 0-.4.4-.4 1zM105.7 414.1c.7.7 1.5 1 1.8.7.3-.3-.2-.9-1.2-1.2-1.4-.6-1.5-.5-.6.5zM104.8 427.7c.7.3 1.6.2 1.9-.1.4-.3-.2-.6-1.3-.5-1.1 0-1.4.3-.6.6zM406.8 428.7c.6.2 1.8.2 2.5 0 .6-.3.1-.5-1.3-.5-1.4 0-1.9.2-1.2.5zM396.8 431.7c1.2.2 3.2.2 4.5 0 1.2-.2.2-.4-2.3-.4s-3.5.2-2.2.4zM384.3 434.7c.9.2 2.3.2 3 0 .6-.3-.1-.5-1.8-.5-1.6 0-2.2.2-1.2.5zM149.8 435.7c.7.3 1.6.2 1.9-.1.4-.3-.2-.6-1.3-.5-1.1 0-1.4.3-.6.6zM158.3 438.7c.9.2 2.3.2 3 0 .6-.3-.1-.5-1.8-.5-1.6 0-2.2.2-1.2.5zM382.8 438.7c.7.3 1.6.2 1.9-.1.4-.3-.2-.6-1.3-.5-1.1 0-1.4.3-.6.6zM129 440c0 .5.5 1 1.1 1 .5 0 .7-.5.4-1-.3-.6-.8-1-1.1-1-.2 0-.4.4-.4 1zM168.8 441.7c.7.3 1.6.2 1.9-.1.4-.3-.2-.6-1.3-.5-1.1 0-1.4.3-.6.6zM373.8 441.7c.6.2 1.8.2 2.5 0 .6-.3.1-.5-1.3-.5-1.4 0-1.9.2-1.2.5zM136.8 442.7c.7.3 1.6.2 1.9-.1.4-.3-.2-.6-1.3-.5-1.1 0-1.4.3-.6.6zM173.8 442.7c.6.2 1.8.2 2.5 0 .6-.3.1-.5-1.3-.5-1.4 0-1.9.2-1.2.5zM180.8 443.7c.7.3 1.6.2 1.9-.1.4-.3-.2-.6-1.3-.5-1.1 0-1.4.3-.6.6zM363.8 444.7c.6.2 1.8.2 2.5 0 .6-.3.1-.5-1.3-.5-1.4 0-1.9.2-1.2.5zM143.8 445.7c.6.2 1.8.2 2.5 0 .6-.3.1-.5-1.3-.5-1.4 0-1.9.2-1.2.5zM186.3 445.7c.9.2 2.3.2 3 0 .6-.3-.1-.5-1.8-.5-1.6 0-2.2.2-1.2.5zM358.8 445.7c.6.2 1.8.2 2.5 0 .6-.3.1-.5-1.3-.5-1.4 0-1.9.2-1.2.5zM195.8 446.7c.6.2 1.8.2 2.5 0 .6-.3.1-.5-1.3-.5-1.4 0-1.9.2-1.2.5zM320.3 446.7c.9.2 2.5.2 3.5 0 .9-.3.1-.5-1.8-.5-1.9 0-2.7.2-1.7.5zM354.8 446.7c.7.3 1.6.2 1.9-.1.4-.3-.2-.6-1.3-.5-1.1 0-1.4.3-.6.6zM200.5 448c.3.5 2.1 1 4 1s3.7-.5 4-1c.4-.6-1.2-1-4-1s-4.4.4-4 1zM308.8 447.7c.7.3 1.6.2 1.9-.1.4-.3-.2-.6-1.3-.5-1.1 0-1.4.3-.6.6zM153.8 448.7c.6.2 1.8.2 2.5 0 .6-.3.1-.5-1.3-.5-1.4 0-1.9.2-1.2.5zM346.3 448.7c.9.2 2.5.2 3.5 0 .9-.3.1-.5-1.8-.5-1.9 0-2.7.2-1.7.5zM158.8 449.7c.6.2 1.8.2 2.5 0 .6-.3.1-.5-1.3-.5-1.4 0-1.9.2-1.2.5zM216.8 449.7c1.2.2 3 .2 4 0 .9-.3-.1-.5-2.3-.4-2.2 0-3 .2-1.7.4zM293.3 449.7c1.5.2 3.9.2 5.5 0 1.5-.2.2-.4-2.8-.4s-4.3.2-2.7.4zM340.8 449.7c.6.2 1.8.2 2.5 0 .6-.3.1-.5-1.3-.5-1.4 0-1.9.2-1.2.5zM238.8 450.7c8.9.2 23.5.2 32.5 0 8.9-.1 1.6-.3-16.3-.3-17.9 0-25.2.2-16.2.3zM332.3 451.7c.9.2 2.5.2 3.5 0 .9-.3.1-.5-1.8-.5-1.9 0-2.7.2-1.7.5zM170.3 452.7c.9.2 2.5.2 3.5 0 .9-.3.1-.5-1.8-.5-1.9 0-2.7.2-1.7.5zM325.3 452.7c.9.2 2.3.2 3 0 .6-.3-.1-.5-1.8-.5-1.6 0-2.2.2-1.2.5zM317.3 453.7c.9.2 2.3.2 3 0 .6-.3-.1-.5-1.8-.5-1.6 0-2.2.2-1.2.5zM186.3 455.7c.9.2 2.5.2 3.5 0 .9-.3.1-.5-1.8-.5-1.9 0-2.7.2-1.7.5zM304.3 455.7c.9.2 2.5.2 3.5 0 .9-.3.1-.5-1.8-.5-1.9 0-2.7.2-1.7.5zM195.3 456.7c.9.2 2.5.2 3.5 0 .9-.3.1-.5-1.8-.5-1.9 0-2.7.2-1.7.5zM290.8 456.7c1.2.2 3.2.2 4.5 0 1.2-.2.2-.4-2.3-.4s-3.5.2-2.2.4zM227.3 458.6c1 1 7.7 1.2 7.7.2 0-.4-1.9-.8-4.2-.8-2.3 0-3.8.3-3.5.6zM251.3 458.7c4.8.2 12.6.2 17.5 0 4.8-.1.8-.3-8.8-.3-9.6 0-13.6.2-8.7.3z"/></svg>