<svg viewBox="0 0 4624 3799" xmlns="http://www.w3.org/2000/svg" fill-rule="evenodd" clip-rule="evenodd" stroke-linejoin="round" stroke-miterlimit="2"><path d="M1872.65 692H746.73s-61.06-77.241 0-129.22c33.694-28.685 73.485-25.713 102.389-17.287 18.834 5.493 37.611-7.213 41.745-26.391 6.847-31.754 27.945-73.311 88.552-97.868 59.628-24.154 97.338 12.735 119.168 50.632 7.179 12.47 26.29 10.597 30.62-3.12 18.9-59.833 84.77-139.151 301.2-139.151 275.27 0 244.68 146.337 220.08 207.157-4.27 10.562 4.77 21.505 15.91 19.123 42.46-9.079 121.27-20.842 156.62 6.905 49.64 38.966 49.64 129.22 49.64 129.22z" fill="url(#_Linear1)"/><path d="M3001.4 2224.7c-32.93 143.1 304.55 162.58 443.61 163.06 316.43 1.09 489.72-97.38 453.62-182.53-46.58-109.87-186.5-33.27-186.5-33.27s17.56-82.94-220.53-137.72c-238.09-54.79-237.14 127.76-237.14 127.76s-211.7-117.08-253.06 62.7z" fill="url(#_Linear2)"/><path d="M1864.19 2526.03l-723.01-513.19c-50.64-40.86-56.801-105.53-29.18-131.24L2511.23 653.66c27.62-25.71 72.9-30.303 101.15-10.257l720.92 460.108c28.25 20.05 48.86 95.9 3.22 135.93l-1371.18 1276.33c-27.62 25.71-72.91 30.3-101.15 10.26v-.001z" fill="#11858a" fill-rule="nonzero"/><path d="M1849.57 2460.64l-723.02-513.19c-28.24-20.05-28.75-57.14-1.12-82.85L2496.6 588.27c27.62-25.71 72.91-30.302 101.15-10.256l723.02 513.187c28.24 20.05 28.74 57.14 1.12 82.85l-1371.17 1276.33c-27.63 25.71-72.91 30.3-101.15 10.26v-.001z" fill="#60c2c5" fill-rule="nonzero"/><path d="M1853.59 2419.97l-680.42-477.46c-27.31-19.38-27.79-55.25-1.09-80.1L2497.79 628.39c26.71-24.857 70.49-29.297 97.8-9.916l680.42 477.463c27.31 19.38 27.8 55.24 1.09 80.1l-1325.71 1234.02c-26.71 24.85-70.49 29.29-97.8 9.91v.003z" fill="#c0e3e4" fill-rule="nonzero"/><path d="M2634.41 685.111c-18.98 17.672-18.64 43.168.77 56.946l483.72 339.43c19.42 13.78 50.54 10.63 69.53-7.05l24.47-22.78-554.36-389.003-24.13 22.457z" fill="#0a3c5f" fill-rule="nonzero"/><path d="M2057.68 2197.57l-646.35-451.39-18.33 26.23 664.68 464.2v-39.04zm71.7-70.7l-646.35-451.39-18.33 26.23 664.68 464.19v-39.03zm127.15 26.72l-706.91-523.12 114.72-114.96 685.83 494.54-93.64 143.54zm-531.19-687.9l757.08-701.669 637.71 423.539-763.25 703.52-631.54-425.39z" fill="#fff" fill-rule="nonzero"/><path d="M1985.44 940.097s-17.68 71.65 14.8 131.09c38.75 70.93 106.22 86.16 96.53 183.38-9.33 93.68 101.38-58.82 101.38-58.82l-18.68-263.3-56.06-82.35-89.27 6.92-27.67 29.75-21.03 53.33z" fill="#222954" fill-rule="nonzero"/><path d="M2289.25 912.177s170.85-74.9 234.67 102.38c63.82 177.28 82.43 217.35 295.17 270.44 212.73 53.09 75.34 423.61 243.76 593.79-134.73 67.37-161.33 308.47-280.1 327.08-198.56-58.5-266.81-198.55-258.83-343.92 7.98-145.37 9.75-236.66-216.28-356.33-226.03-119.66-105.92-549.56-18.39-593.44z" fill="#0a3c5f" fill-rule="nonzero"/><path d="M2236.4 1114.61c17.37 28.91 15 80.84 96.08 132-192.81 60.46-113.46-160.91-96.08-132z" fill="#222954" fill-rule="nonzero"/><path d="M2133.68 1120.93s7.12 51.39 0 108.36l99.06 7.31s-2.34-59.74 3.66-121.99c7.45-77.3-4.33-90.08-4.33-90.08l-98.39 96.4z" fill="#f4a086" fill-rule="nonzero"/><path d="M2157.95 892.237s-47.53 3.65-72.79 76.78c-25.27 73.13-31.58 119-24.94 143.26 6.65 24.27 55.52 43.55 104.38 25.27 48.86-18.29 83.43-99.72 83.43-99.72l-3.66-103.05-86.42-42.54zm-632.678 2.68l-28.9-81.67s30.16-67.017 28.9-87.121c-1.26-20.104-24.71-102.197-54.03-95.496-29.32 6.702-72.46 118.114-72.46 134.03 0 15.916 34.35 67.437 34.35 67.437l39.37 106.38 52.77-43.56z" fill="#f6b690" fill-rule="nonzero"/><path d="M1985.44 940.097s3.98-135.95 145.25-158.219c141.27-22.271 162.55 96.399 158.56 130.299 39.89 23.93 57.39 78.45 29.91 117.67-18.74 26.75-73.79 56.51-82.76 84.76-16.6-26.6-15.45-48.51-15.45-48.51s-6.4-8.59-10.56-14.22c-20.2-27.35 21.12-45.03 3.07-74.22-13.49-21.82-43.2-11.15-66.81-26.59-25.93-16.95-23.97-29.51-25.331-40.33-5.169-38.84-101.319-65.54-135.879 29.36z" fill="#0a3c5f" fill-rule="nonzero"/><path d="M2220.95 1066.1s-7.7 177.74 149.3 189.41c156.99 11.67-84.99-250.92-84.99-250.92l-64.31 61.51z" fill="#0a3c5f" fill-rule="nonzero"/><path d="M2138.23 1213.21s-159.58 18.36-269.73 11.3c-110.15-7.06-182.88-11.3-182.88-11.3L1533.1 876.4l-83.32 40.96s119.33 383.41 131.34 406.71c12 23.3 448.37 96.74 448.37 96.74l108.74-207.6z" fill="#1ba8ac" fill-rule="nonzero"/><path d="M2989.28 2719.97l87.75 46.09h60.28l-35.46 103.71-38.56-19.5-133.4-55.4 59.39-74.9z" fill="#f4a086" fill-rule="nonzero"/><path d="M2243.4 1066.67c-6.07 14.54-18.84 23.07-28.51 19.04-9.66-4.03-12.57-19.09-6.5-33.64 6.08-14.55 18.84-23.07 28.51-19.04 9.67 4.02 12.58 19.09 6.5 33.64z" fill="#f6b690" fill-rule="nonzero"/><path d="M2066.21 1242.87c19.06-15.53 53.66-29.66 98.85-29.66 45.2 0 111.3 2 135.79 12.56 71.12 30.65 23.79 298.13 35.8 466.18-91.8 3.53-305.04 13.42-305.04 13.42s-26.83-237.25-26.83-312.81c0-112.27 61.43-149.69 61.43-149.69z" fill="#60c2c5" fill-rule="nonzero"/><path d="M2136.57 3097.59l55.841 180.82 101.05-19.5-52.3-170.19-104.591 8.87z" fill="#f4a086" fill-rule="nonzero"/><path d="M2031.61 1705.37s-66.12 298.41-84.73 747.81c110.8 438.76 204.75 755.21 204.75 755.21s78.01-36.35 120.55-59.39c-28.36-107.26-43.43-570.84-85.98-685.18 122.33-241.99 258.83-632.11 135.62-771.22-149.8 6.26-290.21 12.77-290.21 12.77z" fill="#f6a40d" fill-rule="nonzero"/><path d="M2314.05 1229.45c59.89 18.51 385.53 211.83 392.6 290.92 7.06 79.08-416.6 334.69-416.6 334.69l-43.47-84.03 296.96-235.91S2278.32 1416 2225.9 1389.03c-70.01-36.01-76.37-210.42 88.15-159.58z" fill="#1ba8ac" fill-rule="nonzero"/><path d="M2085.18 1702.9s50.96 469.28 255.93 797.25c276.77 199.44 648.17 331.51 648.17 331.51s24.82-53.19 54.95-106.37c-187.91-90.41-383.8-307.58-556.65-379.38-24.82-154.23 23.93-413.06-37.23-530.06-61.16-117-113.7-123.91-113.7-123.91l-251.47 10.96z" fill="#fdd247" fill-rule="nonzero"/><path d="M3093.87 2752.78l6.21 55.84s-43.83 33.69-43.19 39c.64 5.32 34.32 47.87 34.32 47.87s31.91 117 41.66 131.19c9.75 14.18 58.51 9.75 58.51 9.75v-287.2l-97.51 3.55z" fill="#0a3c5f" fill-rule="nonzero"/><path d="M3170.1 2750.01v287.01c11.59.28 21.28-.59 21.28-.59v-287.2l-21.28.78z" fill="#222954" fill-rule="nonzero"/><path d="M2167.59 3243.84h85.09l36.35-35.45 46.97 78-112.57 181.71h-145.37v-53.18l95.73-52.3-6.2-118.78z" fill="#0a3c5f" fill-rule="nonzero"/><path d="M2321.62 3262.49l-114.59 175.46h-128.97v30.14h145.37L2336 3286.38l-14.38-23.89z" fill="#222954" fill-rule="nonzero"/><path d="M1449.79 601.435s-17.98-41.972-63.35-23.455c-45.36 18.517-58.63 68.82-29.62 103.693 29.01 34.873 89.8 99.065 89.8 99.065s94.13-89.189 101.84-131.469c7.72-42.28-4.93-71.289-23.14-78.387-18.21-7.098-68.65-9.567-75.53 30.553z" fill="#ff2366" fill-rule="nonzero"/><path d="M1519 627.699s.84 60.313 6.28 98.427c-10.9 42.871-35.18 37.696-35.18 37.696s-8.8-67.433 0-100.522c8.79-33.089 28.9-35.601 28.9-35.601z" fill="#f6b690" fill-rule="nonzero"/><path d="M2327.3 1481.18s-32.86.36-41.59 26.58c-12.41 37.25 15.9 70.68 52.21 68.86 36.3-1.82 106.69-9.92 106.69-9.92s-15.81-100.1-35.27-128.51c-21.74-31.76-46.61-28.11-61.37-22.87-21.88 7.78-43.08 42.16-20.67 65.86z" fill="#cc1159" fill-rule="nonzero"/><path d="M2246.83 1510.05s-25.09-8.87-39.03 8.65c-19.81 24.89-7.58 58.2 20.54 66.91 28.12 8.71 83.92 22.13 83.92 22.13s15.84-80.55 8.95-107.58c-7.7-30.21-27.64-34.35-40.32-34.47-18.81-.17-44.51 20.09-34.06 44.36z" fill="#ff2366" fill-rule="nonzero"/><path d="M2237.47 1599.27s-16.72-5.91-26 5.76c-13.2 16.58-5.06 38.77 13.68 44.57 18.73 5.81 55.9 14.75 55.9 14.75s10.55-53.66 5.96-71.67c-5.12-20.12-18.4-22.88-26.85-22.96-12.53-.11-29.65 13.38-22.69 29.55z" fill="#cc1159" fill-rule="nonzero"/><path d="M2462.15 1550.85s-1.67-24.58-21.67-30.01c-28.43-7.71-52.26 14.9-49.35 42.01 2.91 27.1 11.97 79.46 11.97 79.46s74.28-16.08 94.74-31.85c22.85-17.63 19.06-36.09 14.51-46.92-6.76-16.05-33.41-30.47-50.2-12.69zm-202.18 109.74s-16.41-25.62-41.28-19.61c-35.36 8.54-47.72 47.18-28.46 74.79 19.25 27.61 60.16 78.9 60.16 78.9s70.86-61.54 83.63-90.77c14.27-32.66-.81-50.4-12.17-59.41-16.85-13.36-54.26-13.13-61.88 16.1z" fill="#f21d65" fill-rule="nonzero"/><path d="M2132.91 1668.53s-37.49-16.6-60.97 8.65c-33.37 35.88-18.52 88.49 23.65 105.22 42.17 16.72 126.28 43.95 126.28 43.95s33.83-121.84 26.44-164.18c-8.25-47.32-38.38-56.05-57.85-57.73-28.87-2.5-70.73 25.57-57.55 64.09zm336.25-201.28s-26-10.81-41.73 6.9c-22.37 25.16-11.36 61.06 17.86 71.88 29.21 10.82 87.4 28.2 87.4 28.2s21.36-84.2 15.63-113.16c-6.4-32.36-27.22-37.88-40.62-38.73-19.86-1.26-48.18 18.67-38.54 44.91z" fill="#ff2366" fill-rule="nonzero"/><path d="M2112.29 1764.55s-12.27-18.49-30.33-13.81c-25.68 6.64-34.23 34.96-19.87 54.87 14.37 19.91 44.8 56.83 44.8 56.83s50.94-45.72 59.9-67.18c10.02-23.99-1.19-36.74-9.58-43.18-12.44-9.54-39.71-8.93-44.92 12.47z" fill="#cc1159" fill-rule="nonzero"/><path d="M1267.17 1154.52s-34.78-10.49-46.68 26.62c-11.9 37.12 11.98 70.92 48.06 71.06 36.08.14 106.28-4.1 106.28-4.1s-6.25-102.96-28.07-129.27c-21.83-26.32-45.98-33.43-59.61-25.96-13.64 7.47-40.92 36.95-19.98 61.65zm1076.88 417.418s-23.68-21.29-47.12-8.32c-33.31 18.45-35.05 60.88-7.95 83.4 27.11 22.51 82.65 62.91 82.65 62.91s54.41-81.8 59.18-114.84c5.33-36.93-14.81-50.65-28.78-56.58-20.72-8.81-58.41 1.82-57.98 33.43z" fill="#ff2366" fill-rule="nonzero"/><path d="M2302.22 1742.24l-90.44 63.66s-55.73-2.51-94.691 23.46c-38.949 25.97-57.379-13.4-88.789-8.38 0 30.58 95.47 77.07 109.93 73.72 14.47-3.35 99.07-54.87 99.07-54.87l124.72-63.32-59.8-34.27z" fill="#f6b690" fill-rule="nonzero"/><path d="M2656.92 1449.86c-12.15 10.17-113.38 85.26-113.38 85.26l-296.96 235.91 43.46 84.03s423.67-255.61 416.61-334.69c-1.66-18.49-20.72-43.22-49.73-70.51z" fill="#1ba8ac" fill-rule="nonzero"/><path d="M1917.29 529.587s94.41-55.842 91.75-110.023c-2.66-54.181-60.22-66.479-81.82-27.921-15.96-32.243-79.35-22.29-81.72 16.287-3.99 64.818 71.79 121.657 71.79 121.657zm799.85 252.698s107.64 21.052 141.68-21.191c34.03-42.239-.78-89.691-42.56-75.253 9.52-34.693-44.45-69.403-71.87-42.166-46.07 45.765-27.25 138.61-27.25 138.61z" fill="#ff2366" fill-rule="nonzero"/><path d="M765.223 1321.66l-18.665 54.24 52.343-19.9 176.814-84.15-210.492 49.81z" fill="#afd8c7" fill-rule="nonzero"/><path d="M746.558 1375.89l91.053-18.55-24.108-8.3-66.945 26.85z" fill="#63c0c4" fill-rule="nonzero"/><path d="M765.223 1321.66l-22.973-47.08 233.465-2.73-210.492 49.81z" fill="url(#_Linear3)"/><path d="M975.715 1271.85L798.901 1356l37.514 67.25 139.3-151.4z" fill="url(#_Linear4)"/><path d="M773.962 1424.02a4.428 4.428 0 01-1.444-.84c-1.818-1.57-2.011-4.33-.428-6.15 4.99-5.74 10.491-11 16.348-15.64a4.339 4.339 0 016.127.71c1.486 1.877 1.165 4.644-.712 6.13a113.173 113.173 0 00-15.182 14.53 4.37 4.37 0 01-4.709 1.26zm125.519 98.87a4.317 4.317 0 01-2.243-1.77c-1.295-2.013-.705-4.734 1.307-6.03 13.153-8.44 29.528-12.33 44.93-10.64 2.382.27 4.123 2.41 3.862 4.81-.262 2.378-2.433 4.119-4.811 3.86-13.252-1.45-27.931 2.03-39.261 9.31a4.37 4.37 0 01-3.784.46zm81.949 38.57a4.362 4.362 0 01-2.915-4.58c1.135-10.7-1.14-20.1-6.768-27.95a35.65 35.65 0 00-7.063-7.32c-1.889-1.468-2.236-4.231-.768-6.12 1.475-1.9 4.226-2.25 6.122-.77a44.365 44.365 0 018.794 9.12c6.821 9.51 9.709 21.25 8.356 33.96a4.373 4.373 0 01-4.797 3.88 4.281 4.281 0 01-.961-.22zm-237.502-74.51a4.388 4.388 0 01-2.859-4.96 148.627 148.627 0 015.343-19.97 141.193 141.193 0 0110.041-22.59 4.33 4.33 0 015.928-1.7 4.366 4.366 0 012.248 3.814c0 .74-.189 1.469-.548 2.116a133.201 133.201 0 00-9.419 21.2 140.04 140.04 0 00-5.027 18.79c-.456 2.35-2.762 3.911-5.113 3.46a5.312 5.312 0 01-.594-.16zm113.295 91.22a6.253 6.253 0 01-.416-.17c-2.171-1.005-3.132-3.618-2.129-5.79 7.608-16.43 15.015-28.7 23.323-38.6 1.541-1.827 4.31-2.07 6.146-.54a4.357 4.357 0 01.539 6.14c-7.796 9.3-14.815 20.95-22.087 36.66a4.383 4.383 0 01-5.376 2.3zm87.098 40.85a4.378 4.378 0 01-2.938-4.127 4.37 4.37 0 011.855-3.573c3.002-2.1 5.9-4.37 8.618-6.73 7.724-6.71 14.35-15.09 19.159-24.23 1.12-2.13 3.77-2.94 5.891-1.83 2.119 1.117 2.944 3.78 1.829 5.9-5.306 10.09-12.625 19.34-21.158 26.74a113.541 113.541 0 01-9.327 7.29c-1.188.84-2.651 1-3.929.56zm-196.548-62.4a4.344 4.344 0 01-2.735-2.78c-4.589-14.21-6.841-29.28-6.696-44.78.018-2.376 1.977-4.32 4.353-4.32h.05c2.409.01 4.345 1.99 4.319 4.4-.138 14.56 1.975 28.7 6.278 42.02.733 2.277-.536 4.754-2.812 5.49a4.329 4.329 0 01-2.757-.03zm130.538 84.44a4.368 4.368 0 01-2.938-3.89c-.125-2.389 1.734-4.459 4.122-4.59 14.579-.79 28.519-3.85 41.434-9.12a4.364 4.364 0 011.72-.353c2.394 0 4.363 1.969 4.363 4.363a4.37 4.37 0 01-2.792 4.07c-13.816 5.64-28.707 8.91-44.255 9.75a4.342 4.342 0 01-1.654-.23zm-90.917-27.41a4.534 4.534 0 01-1.253-.68c-7.526-5.85-14.288-12.48-20.092-19.74a118.814 118.814 0 01-9.897-14.43 4.356 4.356 0 01-.596-2.198c0-1.548.826-2.983 2.163-3.762 2.087-1.23 4.755-.51 5.967 1.57a112.36 112.36 0 009.176 13.38c5.374 6.71 11.643 12.86 18.625 18.29a4.351 4.351 0 01.774 6.11 4.37 4.37 0 01-4.867 1.46zm44.024 30.11c-2.241-.774-3.463-3.238-2.724-5.49.336-1.01.671-2.02 1.014-3.04a142.092 142.092 0 01-20.339-7.91c-2.154-1.044-3.071-3.673-2.032-5.83 1.048-2.16 3.647-3.1 5.828-2.03a131.144 131.144 0 0019.397 7.52c3.388-9.56 7.204-19.52 11.604-30.29.908-2.23 3.485-3.29 5.684-2.39a4.356 4.356 0 012.392 5.68c-4.24 10.4-7.934 20.02-11.221 29.24 4.252.99 8.556 1.77 12.895 2.35 2.431.34 4.071 2.51 3.752 4.9a4.379 4.379 0 01-4.9 3.75c-4.925-.66-9.808-1.56-14.622-2.71-.394 1.16-.781 2.33-1.163 3.49-.75 2.272-3.234 3.526-5.507 2.78-.021-.01-.041-.02-.058-.02zm-15.993 68.57a4.367 4.367 0 01-2.906-4.65c1.673-13.89 4.554-28.63 8.562-43.82a4.364 4.364 0 014.21-3.247c.378 0 .755.05 1.12.147 2.241.56 3.722 3 3.103 5.33-3.902 14.79-6.707 29.14-8.338 42.64a4.373 4.373 0 01-4.327 3.839c-.485 0-.966-.081-1.424-.239zm2.262 70.15a4.364 4.364 0 01-2.854-3.21l-.42-2.08c-2.647-13.63-3.9-27.99-3.715-42.68.029-2.393 2.023-4.339 4.416-4.31 2.408.01 4.338 2.01 4.306 4.41-.176 14.1 1.019 27.87 3.558 40.91l.394 1.93c.5 2.35-1.005 4.67-3.361 5.18-.799.16-1.598.1-2.324-.15zm29.435 63.44a4.277 4.277 0 01-2.032-1.47 164.713 164.713 0 01-22.361-39.2c-.889-2.225.208-4.788 2.432-5.68 2.221-.887 4.779.21 5.668 2.43a156.313 156.313 0 0021.172 37.14 4.353 4.353 0 01-.798 6.111 4.358 4.358 0 01-4.081.669zm54.651 43.34c-.09-.03-.179-.06-.261-.09-13.536-5.64-26.346-13.939-38.073-24.659-1.763-1.62-1.885-4.402-.271-6.171 1.627-1.78 4.387-1.869 6.164-.27 10.98 10.04 22.932 17.79 35.53 23.04 2.209.918 3.271 3.491 2.354 5.7a4.373 4.373 0 01-5.443 2.45zm25.85 7.15a4.373 4.373 0 01-2.897-4.72c.334-2.37 2.552-4.051 4.924-3.73a93.348 93.348 0 0020.791.59c.146-.015.294-.022.441-.022 2.392 0 4.361 1.968 4.361 4.361a4.379 4.379 0 01-4.071 4.351c-7.546.63-15.195.42-22.731-.63a4.522 4.522 0 01-.818-.2z" fill="#63c0c4" fill-rule="nonzero"/><path d="M3046.75 506.796l171.44-18.859 77.09 15.411 50.48 30.311-299.01-26.863z" fill="url(#_Linear5)"/><path d="M3046.75 506.796l288.97 41.647 10.04-14.784" fill="#afd8c7" fill-rule="nonzero"/><path d="M3324.51 596.33l-.56.406-27.84 35.959-248.71-125.607 277.11 89.242z" fill="#63c0c4" fill-rule="nonzero"/><path d="M3384.25 593.347l-24.65-45.74-310.98-40.539 243.47 93.044 92.16-6.765z" fill="url(#_Linear6)"/><path d="M3755.92 1355.11a212.046 212.046 0 01-20.57-21.36c-1.45-1.725-4.061-1.955-5.79-.51-1.74 1.45-1.97 4.04-.51 5.79 6.61 7.9 13.81 15.37 21.37 22.19 2.74 2.47 5.53 4.86 8.37 7.18a4.086 4.086 0 005.78-.57c1.427-1.742 1.17-4.35-.57-5.78a227.909 227.909 0 01-8.08-6.94zm-283.63-758.242c-12.46-3.411-25.59-6.598-40.14-9.73-2.202-.469-4.402.951-4.88 3.151a4.117 4.117 0 003.15 4.883c14.4 3.099 27.39 6.249 39.7 9.623 2.174.592 4.451-.706 5.05-2.878a4.117 4.117 0 00-2.88-5.049zm62.04 29.253a4.119 4.119 0 002.8-2.374c.874-2.075-.102-4.502-2.17-5.393-12.12-5.177-25.2-10.028-38.86-14.422-2.16-.697-4.49.491-5.16 2.655-.134.41-.202.838-.202 1.269a4.1 4.1 0 002.852 3.899c13.41 4.317 26.25 9.08 38.15 14.157.85.365 1.75.418 2.59.209zm167.47 652.791c-.89-2.09-3.28-3.11-5.39-2.17-2.09.89-3.06 3.3-2.16 5.39 5.45 12.8 12.11 25.18 19.8 36.78.97 1.48 2.77 2.12 4.4 1.72.45-.11.88-.29 1.29-.57 1.89-1.25 2.4-3.8 1.15-5.69a221.232 221.232 0 01-19.09-35.46zm-11.01-17.62c2.18-.65 3.4-2.95 2.75-5.12-1.05-3.51-2.02-7.04-2.9-10.6-2.36-9.52-4.07-19.23-5.08-28.85a4.117 4.117 0 00-4.51-3.66c-2.2.25-3.9 2.26-3.66 4.52 1.04 9.99 2.82 20.08 5.27 29.97.91 3.69 1.92 7.35 3.02 10.99a4.118 4.118 0 004.92 2.8c.06-.01.13-.03.19-.05zm-10.53-64.64h.023c2.245 0 4.093-1.845 4.097-4.09.06-12.82 1.12-26 3.25-40.3a4.111 4.111 0 00-3.45-4.67c-2.23-.33-4.34 1.21-4.67 3.45-2.19 14.7-3.28 28.27-3.34 41.48-.008 2.253 1.837 4.116 4.09 4.13zm34.26-365.46c1.55 5.17 2.98 10.37 4.27 15.61 1.96 7.89 3.63 15.92 4.95 23.86a4.123 4.123 0 004.73 3.38c.1-.02.21-.04.32-.07a4.12 4.12 0 003.05-4.66c-1.35-8.15-3.06-16.38-5.07-24.49-1.33-5.37-2.79-10.7-4.39-16-.65-2.17-2.73-3.57-5.12-2.75-2.17.66-3.4 2.94-2.74 5.12zm12.29 63.6c1.17 13.52 1.43 27.14.77 40.48a4.122 4.122 0 004.124 4.306 4.098 4.098 0 004.076-3.896c.69-13.72.42-27.71-.78-41.61a4.12 4.12 0 00-4.45-3.73c-2.23.18-3.94 2.18-3.74 4.45zm-37.03-123.525a333.65 333.65 0 0116.85 36.905c.75 1.95 2.84 3 4.81 2.51.17-.04.34-.09.5-.15 2.103-.811 3.167-3.206 2.36-5.31a346.554 346.554 0 00-17.25-37.812c-1.07-2.003-3.55-2.784-5.57-1.698-2 1.065-2.75 3.55-1.7 5.555zm-51.93-72.283a4.106 4.106 0 005.81.149 4.107 4.107 0 00.15-5.807 325.864 325.864 0 00-30.5-28.263c-1.749-1.421-4.356-1.153-5.78.593-1.419 1.751-1.149 4.359.6 5.781 10.38 8.441 20.37 17.709 29.72 27.547zm65.64 368.768c2.167.624 4.463-.644 5.09-2.81l1.45-4.99c3.32-11.52 6.65-23.05 9.77-34.61.59-2.19-.72-4.45-2.9-5.04-2.2-.58-4.44.7-5.04 2.9-3.1 11.52-6.42 23-9.73 34.46l-1.44 5c-.63 2.18.62 4.46 2.8 5.09zm-25.91-317.555a4.122 4.122 0 004.47 1.802c.41-.103.81-.27 1.2-.514a4.1 4.1 0 001.29-5.663 342.194 342.194 0 00-24.25-33.759c-1.428-1.74-4.032-2.004-5.78-.586-1.742 1.428-2.007 4.032-.59 5.782a329.395 329.395 0 0123.66 32.938zm21.41 333.365c-2.2-.6-4.44.67-5.05 2.87-4.29 15.55-7.45 28.3-9.97 40.12-.058.277-.087.56-.087.843 0 2.258 1.858 4.116 4.116 4.116a4.109 4.109 0 004.021-3.259c2.47-11.65 5.59-24.25 9.84-39.63.597-2.175-.697-4.456-2.87-5.06zm84.5 292.878c-1.877-1.245-4.446-.732-5.7 1.14a4.099 4.099 0 001.14 5.69c10.85 7.26 22.62 14.05 35.99 20.76.91.46 1.91.55 2.83.32a4.142 4.142 0 002.69-2.15c1.01-2.02.2-4.49-1.83-5.51-13.06-6.56-24.55-13.19-35.12-20.25zm-53.54-420.498c-2.24-.28-4.32 1.28-4.61 3.53-1.66 12.4-4.1 25.48-7.47 39.97a4.108 4.108 0 00-.109.937 4.112 4.112 0 004.107 4.101 4.12 4.12 0 004.002-3.178c3.44-14.75 5.92-28.08 7.61-40.74.3-2.25-1.28-4.32-3.53-4.62zm-159.66-320.226c-4.2-2.372-8.46-4.646-12.75-6.832-2.02-1.019-4.5-.225-5.53 1.801-1.021 2.01-.209 4.505 1.8 5.528 4.2 2.127 8.34 4.346 12.45 6.659 7.62 4.29 15.16 8.997 22.4 13.989a4.107 4.107 0 002.391.767c2.253 0 4.108-1.854 4.108-4.108a4.112 4.112 0 00-1.839-3.424 301.366 301.366 0 00-23.03-14.38z" fill="#64c0c2" fill-rule="nonzero"/><defs><linearGradient id="_Linear1" x1="0" y1="0" x2="1" y2="0" gradientUnits="userSpaceOnUse" gradientTransform="rotate(180 936.32 255.399) scale(1153.06)"><stop offset="0" stop-color="#dfefe9"/><stop offset="1" stop-color="#bfe2ed"/></linearGradient><linearGradient id="_Linear2" x1="0" y1="0" x2="1" y2="0" gradientUnits="userSpaceOnUse" gradientTransform="translate(2999.15 2205.86) scale(904.19)"><stop offset="0" stop-color="#dfefe9"/><stop offset="1" stop-color="#bfe2ed"/></linearGradient><linearGradient id="_Linear3" x1="0" y1="0" x2="1" y2="0" gradientUnits="userSpaceOnUse" gradientTransform="rotate(-172.04 531.602 599.64) scale(231.5924)"><stop offset="0" stop-color="#f0f7f6"/><stop offset="1" stop-color="#bfe2ed"/></linearGradient><linearGradient id="_Linear4" x1="0" y1="0" x2="1" y2="0" gradientUnits="userSpaceOnUse" gradientTransform="scale(-186.7635) rotate(7.96 48.79 -41.47)"><stop offset="0" stop-color="#f0f7f6"/><stop offset="1" stop-color="#bfe2ed"/></linearGradient><linearGradient id="_Linear5" x1="0" y1="0" x2="1" y2="0" gradientUnits="userSpaceOnUse" gradientTransform="scale(-286.35) rotate(-22.618 -10.803 28.078)"><stop offset="0" stop-color="#f0f7f6"/><stop offset="1" stop-color="#bfe2ed"/></linearGradient><linearGradient id="_Linear6" x1="0" y1="0" x2="1" y2="0" gradientUnits="userSpaceOnUse" gradientTransform="rotate(157.382 1630.447 638.569) scale(342.995)"><stop offset="0" stop-color="#f0f7f6"/><stop offset="1" stop-color="#bfe2ed"/></linearGradient></defs></svg>